<?xml version="1.0" encoding="UTF-8"?>
<svg id="Layer_1" xmlns="http://www.w3.org/2000/svg" version="1.1" xmlns:xlink="http://www.w3.org/1999/xlink" viewBox="0 0 159.4 56.2">
  <!-- Generator: Adobe Illustrator 29.2.1, SVG Export Plug-In . SVG Version: 2.1.0 Build 116)  -->
  <defs>
    <style>
      .st0 {
        fill: none;
      }

      .st0, .st1 {
        stroke: #42210b;
        stroke-miterlimit: 10;
      }

      .st2 {
        fill: #42200a;
        font-family: Montserrat-SemiBold, Montserrat;
        font-size: 22.8px;
        font-weight: 600;
      }

      .st2, .st3, .st4 {
        isolation: isolate;
      }

      .st1, .st5, .st4 {
        fill: #42210b;
      }

      .st6 {
        fill: #c69c6d;
      }

      .st7 {
        display: none;
      }

      .st4 {
        font-family: PlayfairDisplay-MediumItalic, 'Playfair Display';
        font-size: 6px;
        font-style: italic;
        font-weight: 500;
        letter-spacing: 0em;
      }

      .st8 {
        fill: #754c24;
      }
    </style>
  </defs>
  <g class="st7">
    <path d="M80-24.1c32.8,0,59.5,26.7,59.5,59.5s-26.7,59.5-59.5,59.5-59.5-26.7-59.5-59.5,26.7-59.5,59.5-59.5M80-24.6c-33.1,0-60,26.9-60,60s26.8,60,60,60,60-26.8,60-60-26.8-60-60-60h0Z"/>
    <path d="M80-1.2c20.2,0,36.6,16.4,36.6,36.6s-16.4,36.6-36.6,36.6-36.6-16.4-36.6-36.6S59.8-1.2,80-1.2M80-1.7c-20.5,0-37.1,16.6-37.1,37.1s16.6,37.1,37.1,37.1,37.1-16.6,37.1-37.1S100.4-1.7,80-1.7h0Z"/>
    <path d="M80,12.9c12.3,0,22.4,10,22.4,22.4s-10.1,22.4-22.4,22.4-22.4-10.1-22.4-22.4,10.1-22.4,22.4-22.4M80,12.4c-12.7,0-22.9,10.2-22.9,22.9s10.2,22.9,22.9,22.9,22.9-10.2,22.9-22.9-10.2-22.9-22.9-22.9h0Z"/>
    <path d="M80,21.7c7.5,0,13.7,6.1,13.7,13.7s-6.1,13.7-13.7,13.7-13.7-6.1-13.7-13.7,6.1-13.7,13.7-13.7M80,21.2c-7.8,0-14.2,6.3-14.2,14.2s6.3,14.2,14.2,14.2,14.2-6.3,14.2-14.2-6.3-14.2-14.2-14.2h0Z"/>
  </g>
  <g>
    <g>
      <path d="M5.9,52.8V2.8c0-.7.5-1.2,1.2-1.2h49.7c4.8,0,8.7,3.9,8.7,8.7v33.6c0,4.9-4,8.8-8.8,8.8,0,0-50.7,0-50.7,0Z"/>
      <path class="st5" d="M56.8,2.1c4.5,0,8.2,3.7,8.2,8.2v33.6c0,4.6-3.7,8.3-8.3,8.3H6.4V2.8c0-.4.3-.7.7-.7h49.7M56.8,1.1H7.1c-.9,0-1.7.8-1.7,1.7v50.5h51.2c5.2,0,9.3-4.2,9.3-9.3V10.3c0-5.1-4.1-9.2-9.2-9.2h0Z"/>
    </g>
    <path class="st0" d="M4.2,3.5l1.2-.8c0,0,.1,0,.2-.1l1.5-1"/>
    <g>
      <path class="st6" d="M4.8,54.6c-.7,0-1.2-.6-1.2-1.2V4.5c0-.6.5-1.1,1.1-1.1h49.1c4.8,0,8.7,3.9,8.7,8.7v33.6c0,4.9-4,8.8-8.8,8.8H4.8Z"/>
      <path class="st8" d="M53.8,3.9c4.5,0,8.2,3.7,8.2,8.2v33.6c0,4.6-3.7,8.3-8.3,8.3H4.8c-.4,0-.8-.3-.8-.8V4.5c0-.3.3-.6.6-.6h49.1M53.8,2.9H4.6c-.9,0-1.6.7-1.6,1.6v48.8c0,1,.8,1.8,1.8,1.8h48.9c5.2,0,9.3-4.2,9.3-9.3V12.1c0-5.1-4.1-9.2-9.2-9.2h0Z"/>
    </g>
    <path class="st1" d="M65.4,16.9s0,7-.8,8.8-4.2,3.6-6,4.4c-2.3,1.1-10,1.5-10,1.5l-10.6.7-6,.7v5.5c0,.4-.5.6-.8.3l-11.8-11.2c-.3-.3-.3-.7,0-1l11.8-9.2c.3-.2.8,0,.8.4v7.1s4.5,0,6,0c2.7,0,8,.1,10.6,0,2.3-.1,7-1,9.3-1.5,1.2-.2,3.7-1.2,4.7-2.2.8-.8,2.8-4.5,2.8-4.5h0Z"/>
    <path class="st5" d="M52.1,5.1h-1.5v.5h1.5v-.5h0ZM49.6,5.1h-1.5v.5h1.5v-.5h0ZM47.1,5.1h-1.5v.5h1.5v-.5h0ZM44.6,5.1h-1.5v.5h1.5v-.5h0ZM42.1,5.1h-1.5v.5h1.5v-.5h0ZM39.6,5.1h-1.5v.5h1.5v-.5h0ZM37.1,5.1h-1.5v.5h1.5v-.5h0ZM34.6,5.1h-1.5v.5h1.5v-.5h0ZM32.1,5.1h-1.5v.5h1.5v-.5h0ZM29.6,5.1h-1.5v.5h1.5v-.5h0ZM27.1,5.1h-1.5v.5h1.5v-.5h0ZM24.6,5.1h-1.5v.5h1.5v-.5h0ZM22.1,5.1h-1.5v.5h1.5v-.5h0ZM19.6,5.1h-1.5v.5h1.5v-.5h0ZM17.1,5.1h-1.5v.5h1.5v-.5h0ZM14.6,5.1h-1.5v.5h1.5v-.5h0ZM12.1,5.1h-1.5v.5h1.5v-.5h0ZM9.6,5.1h-1.5v.5h1.5v-.5h0ZM7.1,5.1h-.9c-.1,0-.2,0-.3,0h0s0,0,0,0l.3.4c0,0,.2,0,.3,0h.9v-.5h-.2ZM5.7,6.1h-.5v1.5h.5v-1.5h0ZM5.7,8.6h-.5v1.5h.5v-1.5h0ZM5.7,11.1h-.5v1.5h.5v-1.5h0ZM5.7,13.6h-.5v1.5h.5v-1.5h0ZM5.7,16.1h-.5v1.5h.5v-1.5h0ZM5.7,18.6h-.5v1.5h.5v-1.5h0ZM5.7,21.1h-.5v1.5h.5v-1.5h0ZM5.7,23.6h-.5v1.5h.5v-1.5h0ZM5.7,26.1h-.5v1.5h.5v-1.5h0ZM5.7,28.6h-.5v1.5h.5v-1.5h0ZM5.7,31.1h-.5v1.5h.5v-1.5h0ZM5.7,33.6h-.5v1.5h.5v-1.5h0ZM5.7,36.1h-.5v1.5h.5v-1.5h0ZM5.7,38.6h-.5v1.5h.5v-1.5h0ZM5.7,41.1h-.5v1.5h.5v-1.5h0ZM5.7,43.6h-.5v1.5h.5v-1.5h0ZM5.7,46.1h-.5v1.5h.5v-1.5h0ZM5.7,48.6h-.5v1.5h.5v-1.5h0ZM5.7,51.1h-.5v.5h0c0,0,0,.1,0,.2h0s0,0,0,0h0c0,0,0,0,.2.1l.3-.4c-.2,0-.2-.3-.2-.4v-.5h0l.2.4ZM8.1,52.1h-1.5v.5h1.5v-.5h0ZM10.6,52.1h-1.5v.5h1.5v-.5h0ZM13.1,52.1h-1.5v.5h1.5v-.5h0ZM15.6,52.1h-1.5v.5h1.5v-.5h0ZM18.1,52.1h-1.5v.5h1.5v-.5h0ZM20.6,52.1h-1.5v.5h1.5v-.5h0ZM23.1,52.1h-1.5v.5h1.5v-.5h0ZM25.6,52.1h-1.5v.5h1.5v-.5h0ZM28.1,52.1h-1.5v.5h1.5v-.5h0ZM30.6,52.1h-1.5v.5h1.5v-.5h0ZM33.1,52.1h-1.5v.5h1.5v-.5h0ZM35.6,52.1h-1.5v.5h1.5v-.5h0ZM38.1,52.1h-1.5v.5h1.5v-.5h0ZM40.6,52.1h-1.5v.5h1.5v-.5h0ZM43.1,52.1h-1.5v.5h1.5v-.5h0ZM45.6,52.1h-1.5v.5h1.5v-.5h0ZM48.1,52.1h-1.5v.5h1.5v-.5h0ZM50.6,52.1h-1.5v.5h1.5v-.5h0ZM53,52c-.5,0-.9.1-1.4.1h0v.5h.2c.2,0,.4,0,.6,0v-.5h0,.7ZM55.2,51.3c-.4.2-.9.4-1.3.5v.5c.5-.1.9-.2,1.3-.4h0s.1,0,.2,0l-.2-.4h0ZM57.2,50.1c-.3.3-.7.6-1.1.8l.3.4c.1,0,.3-.2.4-.3h0s0,0,0,0h0s0,0,0,0h0c.2-.2.5-.3.7-.5l-.3-.4h0ZM58.7,48.3c-.2.4-.5.8-.9,1.1l.4.3c.1-.1.2-.3.4-.4h0s0,0,0,0h0s0,0,0,0h0c.1-.2.2-.3.3-.5h0s0,0,0,0h0s0,0,0,0l-.4-.3h.1ZM59.7,46.1c-.1.4-.3.9-.5,1.3l.5.2c.2-.3.3-.7.4-1.1h0c0,0-.5-.2-.5-.2h0v-.3ZM60,43.8c0,.5,0,.9-.1,1.4h.5c0,0,0-.2,0-.3h0c0-.3,0-.6,0-.8h0c0,0-.5,0-.5,0v-.2ZM60.5,41.3h-.5v1.5h.5v-1.5h0ZM60.5,38.8h-.5v1.5h.5v-1.5h0ZM60.5,36.3h-.5v1.5h.5v-1.5h0ZM60.5,33.8h-.5v1.5h.5v-1.5h0ZM60.5,31.3h-.5v1.5h.5v-1.5h0ZM60.5,28.8h-.5v1.5h.5v-1.5h0ZM60.5,26.3h-.5v1.5h.5v-1.5h0ZM60.5,23.8h-.5v1.5h.5v-1.5h0ZM60.5,21.3h-.5v1.5h.5v-1.5h0ZM60.5,18.8h-.5v1.5h.5v-1.5h0ZM60.5,16.3h-.5v1.5h.5v-1.5h0ZM60.5,13.8h-.5v1.5h.5v-1.5h0ZM60.2,11.3h-.5c.1.6.2,1,.2,1.5h.5c0-.4,0-.7-.2-1.1h0c0-.1,0-.2,0-.3h0ZM59.2,9.1l-.4.3c.2.4.5.8.6,1.2l.5-.2c-.2-.4-.3-.7-.5-1.1h0s0,0,0,0h0s0,0,0-.1h0ZM57.6,7.2l-.3.4c.3.3.7.7,1,1l.4-.3c-.3-.4-.7-.8-1-1.1h0ZM55.5,5.8l-.2.5c.4.2.8.4,1.2.7l.3-.4c0,0-.2-.1-.2-.2h0s0,0,0,0h0s0,0,0,0h0c-.3-.2-.5-.3-.8-.4h0s0,0,0,0h-.2ZM53.1,5.1v.5c.4,0,.9.2,1.3.3l.2-.5c0,0-.2,0-.2,0h0s0,0,0,0h0c-.2,0-.5-.1-.7-.2h0c0,0-.2,0-.2,0h-.2ZM52.1,5.1v.5h0v-.5h0Z"/>
    <g>
      <path d="M54.5,15.1c-.4,0-.9-.1-1.3-.3-.4-.2-.7-.5-.9-.9-.5-.9-.4-1.9,0-2.6.5-.8,1.3-1.2,2.2-1.2s.9.1,1.3.3c.4.2.7.5.9.9.5.9.4,1.9,0,2.6-.5.8-1.3,1.2-2.2,1.2Z"/>
      <path class="st8" d="M54.5,10.6h0c.4,0,.7,0,1.1.3.3.1.5.4.7.7.5,1,.2,1.8,0,2.2-.4.6-1,1-1.7,1s-.7,0-1.1-.3c-.3-.1-.5-.4-.7-.7-.5-1-.2-1.8,0-2.2.4-.6,1-1,1.7-1M54.5,9.6c-2.2,0-3.8,2.3-2.7,4.6.2.5.6.9,1.1,1.1.5.3,1,.4,1.5.4,2.2,0,3.8-2.3,2.7-4.6-.2-.5-.6-.9-1.1-1.1-.5-.3-1-.4-1.5-.4h0Z"/>
    </g>
    <g class="st3">
      <text class="st4" transform="translate(7.1 49.5) scale(1.6 1)"><tspan x="0" y="0">Side Pocket</tspan></text>
    </g>
  </g>
  <g class="st3">
    <text class="st2" transform="translate(67 23) scale(1.1 1)"><tspan x="0" y="0">Side</tspan></text>
    <text class="st2" transform="translate(67 50.3) scale(1.1 1)"><tspan x="0" y="0">Pocket</tspan></text>
  </g>
</svg>