<?xml version="1.0" encoding="UTF-8"?>
<svg id="Layer_1" xmlns="http://www.w3.org/2000/svg" version="1.1" xmlns:xlink="http://www.w3.org/1999/xlink" viewBox="0 0 160 160">
  <!-- Generator: Adobe Illustrator 29.2.1, SVG Export Plug-In . SVG Version: 2.1.0 Build 116)  -->
  <defs>
    <style>
      .st0 {
        font-family: PlayfairDisplay-MediumItalic, 'Playfair Display';
        font-size: 10.2px;
        font-style: italic;
        font-weight: 500;
      }

      .st0, .st1 {
        isolation: isolate;
      }

      .st0, .st2 {
        fill: #42210b;
      }

      .st3, .st4 {
        fill: #c69c6d;
      }

      .st5 {
        fill: none;
      }

      .st5, .st4, .st6 {
        stroke-miterlimit: 10;
      }

      .st5, .st6 {
        stroke: #603813;
      }

      .st4 {
        stroke: #754c24;
      }

      .st7, .st6 {
        fill: #603813;
      }

      .st8 {
        display: none;
      }

      .st9 {
        fill: #754c24;
      }
    </style>
  </defs>
  <g class="st8">
    <path d="M80,19.8c32.8,0,59.5,26.7,59.5,59.5s-26.7,59.5-59.5,59.5-59.5-26.7-59.5-59.5,26.7-59.5,59.5-59.5M80,19.3c-33.1,0-60,26.9-60,60s26.8,60,60,60,60-26.8,60-60-26.8-60-60-60h0Z"/>
    <path d="M80,42.7c20.2,0,36.6,16.4,36.6,36.6s-16.4,36.6-36.6,36.6-36.6-16.4-36.6-36.6,16.4-36.6,36.6-36.6M80,42.2c-20.5,0-37.1,16.6-37.1,37.1s16.6,37.1,37.1,37.1,37.1-16.6,37.1-37.1-16.6-37.1-37.1-37.1h0Z"/>
    <path d="M80,56.8c12.3,0,22.4,10,22.4,22.4s-10.1,22.4-22.4,22.4-22.4-10.1-22.4-22.4,10.1-22.4,22.4-22.4M80,56.3c-12.7,0-22.9,10.2-22.9,22.9s10.2,22.9,22.9,22.9,22.9-10.2,22.9-22.9-10.2-22.9-22.9-22.9h0Z"/>
    <path d="M80,65.6c7.5,0,13.7,6.1,13.7,13.7s-6.1,13.7-13.7,13.7-13.7-6.1-13.7-13.7,6.1-13.7,13.7-13.7M80,65.1c-7.8,0-14.2,6.3-14.2,14.2s6.3,14.2,14.2,14.2,14.2-6.3,14.2-14.2-6.3-14.2-14.2-14.2h0Z"/>
  </g>
  <g>
    <g>
      <path d="M32.5,119.5V37.3c0-1.6,1.3-2.8,2.8-2.8h80.9c8.4,0,15.2,6.8,15.2,15.2v54.4c0,8.5-6.9,15.4-15.4,15.4H32.5Z"/>
      <path class="st7" d="M116.3,35c8.1,0,14.7,6.6,14.7,14.7v54.4c0,8.2-6.7,14.9-14.9,14.9H33V37.3c0-1.3,1-2.3,2.3-2.3h80.9M116.3,34H35.3c-1.8,0-3.3,1.5-3.3,3.3v82.7h84.1c8.8,0,15.9-7.1,15.9-15.9v-54.4c0-8.7-7-15.7-15.7-15.7h0Z"/>
    </g>
    <line class="st5" x1="30" y1="38" x2="33" y2="36"/>
    <g>
      <path class="st3" d="M32,122.5c-1.9,0-3.5-1.6-3.5-3.5V40.8c0-1.8,1.5-3.3,3.3-3.3h78.9c8.7,0,15.8,7.1,15.8,15.8v53.2c0,8.8-7.2,16-16,16,0,0-78.5,0-78.5,0Z"/>
      <path class="st9" d="M110.7,38c8.4,0,15.3,6.9,15.3,15.3v53.2c0,8.5-6.9,15.5-15.5,15.5H32c-1.6,0-3-1.3-3-3V40.8c0-1.5,1.2-2.8,2.8-2.8h78.9M110.7,37H31.8c-2.1,0-3.8,1.7-3.8,3.8v78.2c0,2.2,1.8,4,4,4h78.5c9.1,0,16.5-7.4,16.5-16.5v-53.2c0-9-7.3-16.3-16.3-16.3h0Z"/>
    </g>
    <g class="st1">
      <text class="st0" transform="translate(33.9 113.8) scale(1.6 1)"><tspan x="0" y="0">Side Pocket</tspan></text>
    </g>
  </g>
  <path class="st2" d="M108.4,40h-1.5v1h1.5v-1h0ZM105.9,40h-1.5v1h1.5v-1h0ZM103.4,40h-1.5v1h1.5v-1h0ZM100.9,40h-1.5v1h1.5v-1h0ZM98.4,40h-1.5v1h1.5v-1h0ZM95.9,40h-1.5v1h1.5v-1h0ZM93.4,40h-1.5v1h1.5v-1h0ZM90.9,40h-1.5v1h1.5v-1h0ZM88.4,40h-1.5v1h1.5v-1h0ZM85.9,40h-1.5v1h1.5v-1h0ZM83.4,40h-1.5v1h1.5v-1h0ZM80.9,40h-1.5v1h1.5v-1h0ZM78.4,40h-1.5v1h1.5v-1h0ZM75.9,40h-1.5v1h1.5v-1h0ZM73.4,40h-1.5v1h1.5v-1h0ZM70.9,40h-1.5v1h1.5v-1h0ZM68.4,40h-1.5v1h1.5v-1h0ZM65.9,40h-1.5v1h1.5v-1h0ZM63.4,40h-1.5v1h1.5v-1h0ZM60.9,40h-1.5v1h1.5v-1h0ZM58.4,40h-1.5v1h1.5v-1h0ZM55.9,40h-1.5v1h1.5v-1h0ZM53.4,40h-1.5v1h1.5v-1h0ZM50.9,40h-1.5v1h1.5v-1h0ZM48.4,40h-1.5v1h1.5v-1h0ZM45.9,40h-1.5v1h1.5v-1h0ZM43.4,40h-1.5v1h1.5v-1h0ZM40.9,40h-1.5v1h1.5v-1h0ZM38.4,40h-1.5v1h1.5v-1h0ZM35.9,40h-1.5v1h1.5v-1h0ZM33.4,40c-.2,0-.3,0-.5.1h-.2c-.2,0-.3.2-.5.3l.6.8c.2-.2.6-.3.9-.4l-.2-1h0l-.2.2ZM31.4,41.4c-.1.2-.2.5-.3.7h0v.2h0v.2h0c0,0,0,.2,0,.3h1c0-.3,0-.6.3-.9l-.9-.5h0ZM32,43.8h-1v1.5h1v-1.5h0ZM32,46.3h-1v1.5h1v-1.5h0ZM32,48.8h-1v1.5h1v-1.5h0ZM32,51.3h-1v1.5h1v-1.5h0ZM32,53.8h-1v1.5h1v-1.5h0ZM32,56.3h-1v1.5h1v-1.5h0ZM32,58.8h-1v1.5h1v-1.5h0ZM32,61.3h-1v1.5h1v-1.5h0ZM32,63.8h-1v1.5h1v-1.5h0ZM32,66.3h-1v1.5h1v-1.5h0ZM32,68.8h-1v1.5h1v-1.5h0ZM32,71.3h-1v1.5h1v-1.5h0ZM32,73.8h-1v1.5h1v-1.5h0ZM32,76.3h-1v1.5h1v-1.5h0ZM32,78.8h-1v1.5h1v-1.5h0ZM32,81.3h-1v1.5h1v-1.5h0ZM32,83.8h-1v1.5h1v-1.5h0ZM32,86.3h-1v1.5h1v-1.5h0ZM32,88.8h-1v1.5h1v-1.5h0ZM32,91.3h-1v1.5h1v-1.5h0ZM32,93.8h-1v1.5h1v-1.5h0ZM32,96.3h-1v1.5h1v-1.5h0ZM32,98.8h-1v1.5h1v-1.5h0ZM32,101.3h-1v1.5h1v-1.5h0ZM32,103.8h-1v1.5h1v-1.5h0ZM32,106.3h-1v1.5h1v-1.5h0ZM32,108.8h-1v1.5h1v-1.5h0ZM32,111.3h-1v1.5h1v-1.5h0ZM32,113.8h-1v1.5h1v-1.5h0ZM32,116.3h-1v.7h0v.2h0v.2h0c0,0,0,0,0,0l1-.3c0-.2,0-.3,0-.5v-.7h0v.4ZM32.3,118.2l-.8.6h0s0,0,0,0h0c.2.3.4.5.7.7h0c0,0,.2,0,.2.1l.4-.9c-.3-.2-.6-.4-.8-.7h0l.2.2ZM33.7,119v1s0,0,.2,0h1.2v-1h-1.1c0,0-.2,0-.2,0h0ZM37.6,119h-1.5v1h1.5v-1h0ZM40.1,119h-1.5v1h1.5v-1h0ZM42.6,119h-1.5v1h1.5v-1h0ZM45.1,119h-1.5v1h1.5v-1h0ZM47.6,119h-1.5v1h1.5v-1h0ZM50.1,119h-1.5v1h1.5v-1h0ZM52.6,119h-1.5v1h1.5v-1h0ZM55.1,119h-1.5v1h1.5v-1h0ZM57.6,119h-1.5v1h1.5v-1h0ZM60.1,119h-1.5v1h1.5v-1h0ZM62.6,119h-1.5v1h1.5v-1h0ZM65.1,119h-1.5v1h1.5v-1h0ZM67.6,119h-1.5v1h1.5v-1h0ZM70.1,119h-1.5v1h1.5v-1h0ZM72.6,119h-1.5v1h1.5v-1h0ZM75.1,119h-1.5v1h1.5v-1h0ZM77.6,119h-1.5v1h1.5v-1h0ZM80.1,119h-1.5v1h1.5v-1h0ZM82.6,119h-1.5v1h1.5v-1h0ZM85.1,119h-1.5v1h1.5v-1h0ZM87.6,119h-1.5v1h1.5v-1h0ZM90.1,119h-1.5v1h1.5v-1h0ZM92.6,119h-1.5v1h1.5v-1h0ZM95.1,119h-1.5v1h1.5v-1h0ZM97.6,119h-1.5v1h1.5v-1h0ZM100.1,119h-1.5v1h1.5v-1h0ZM102.6,119h-1.5v1h1.5v-1h0ZM105.1,119h-1.5v1h1.5v-1h0ZM107.6,119h-1.5v1h1.5v-1h0ZM110,118.9c-.5,0-.9.1-1.4.1v1c.1,0,.2,0,.2,0h.4c.1,0,.2,0,.3,0v-1h-.1.5ZM112.2,118.4c-.4.1-.9.2-1.4.3l.2,1c.1,0,.2,0,.4,0h0s0,0,0,0h0c.3,0,.6-.1.8-.2l-.3-1h0ZM114.4,117.5c-.4.2-.9.4-1.3.6l.3.9c.5-.2.9-.4,1.4-.6l-.4-.9h0ZM116.5,116.3c-.4.3-.8.5-1.2.7l.5.9c0,0,.1,0,.2-.1h0s0,0,0,0h0s0,0,0,0h0s0,0,0,0h0s0,0,0,0h0c0,0,.1,0,.2-.1h0s0,0,0,0h0c0,0,.2-.1.3-.2l-.6-.8h0l.5-.3ZM118.3,114.9c-.3.3-.7.6-1.1.9l.6.8c.4-.3.8-.6,1.1-1l-.7-.7h0ZM119.8,113.1c-.3.4-.6.7-.9,1.1l.7.7c.2-.3.5-.5.7-.8h0c0,0,.1-.2.2-.3l-.8-.6h0ZM121.1,111.2c-.2.4-.5.8-.7,1.2l.8.6c.3-.4.5-.8.8-1.3l-.9-.5h0ZM122.1,109c-.2.4-.3.9-.5,1.3l.9.4c.2-.4.3-.8.5-1.2h0s0,0,0,0l-.9-.3h0ZM122.7,106.8c0,.5-.2.9-.3,1.4l1,.3c0-.2,0-.4.2-.6h0c0-.3,0-.5.1-.7l-1-.2h0v-.2ZM123,104.4c0,.5,0,.9-.1,1.4h1c0-.1,0-.4,0-.6h0v-.2h0c0,0-1-.1-1-.1h0v-.5ZM124,102h-1v1.5h1v-1.5h0ZM124,99.5h-1v1.5h1v-1.5h0ZM124,97h-1v1.5h1v-1.5h0ZM124,94.5h-1v1.5h1v-1.5h0ZM124,92h-1v1.5h1v-1.5h0ZM124,89.5h-1v1.5h1v-1.5h0ZM124,87h-1v1.5h1v-1.5h0ZM124,84.5h-1v1.5h1v-1.5h0ZM124,82h-1v1.5h1v-1.5h0ZM124,79.5h-1v1.5h1v-1.5h0ZM124,77h-1v1.5h1v-1.5h0ZM124,74.5h-1v1.5h1v-1.5h0ZM124,72h-1v1.5h1v-1.5h0ZM124,69.5h-1v1.5h1v-1.5h0ZM124,67h-1v1.5h1v-1.5h0ZM124,64.5h-1v1.5h1v-1.5h0ZM124,62h-1v1.5h1v-1.5h0ZM124,59.5h-1v1.5h1v-1.5h0ZM124,57h-1v1.5h1v-1.5h0ZM124,54.5h-1c0,.4,0,.8,0,1.1v.4h1v-.4h0v-.2h0v-.2h0v-.2h0c0-.1,0-.2,0-.3h0v-.3ZM123.6,52l-1,.2c.1.5.2.9.3,1.4h1c0-.2,0-.4,0-.5h0c0-.3,0-.6-.1-.8h0c0,0,0-.1,0-.2h0ZM122.8,49.6l-.9.4c.2.4.3.9.5,1.3l1-.3s0,0,0,0h0c0-.1,0-.3-.1-.4h0c0-.2-.2-.4-.2-.6h0l-.2-.4ZM121.7,47.4l-.8.5c.2.4.5.8.7,1.2l.9-.4c0-.2-.2-.3-.2-.4h0c-.1-.2-.2-.4-.4-.7h0v-.2ZM120.2,45.4l-.8.7c.3.3.6.7.9,1.1l.8-.6h0s0,0,0,0h0c-.2-.3-.4-.5-.6-.8h0s0,0,0,0h0l-.3-.4ZM118.4,43.6l-.6.8c.4.3.7.6,1,1l.7-.7h0c-.3-.3-.7-.7-1-1h0ZM116.4,42.2l-.5.9c.4.2.8.5,1.2.8l.6-.8c-.3-.2-.6-.5-1-.7h0c0,0-.1,0-.2-.1h0ZM114.2,41.1l-.4.9c.4.2.9.4,1.3.6l.5-.9c-.2-.1-.5-.2-.8-.4h0c-.2,0-.3-.1-.4-.2h-.1ZM111.8,40.4l-.2,1c.5,0,.9.2,1.3.4l.3-1c-.3-.1-.7-.2-1-.3h0c-.1,0-.2,0-.3,0h0ZM109.3,40v1c.4,0,.9,0,1.3.2l.2-1c0,0-.2,0-.3,0h-1.2Z"/>
  <path class="st6" d="M131.5,60s0,11.5-1.3,14.6-6.7,5.9-9.4,7.2c-3.7,1.7-15.7,2.4-15.7,2.4l-16.8,1.2-9.4,1.2v8.3c0,.9-1.1,1.4-1.8.8l-17-16.9c-1-1-.9-2.7.2-3.6l16.6-13.5c.8-.7,2,0,2,1v10.6s7.1,0,9.4,0c4.2-.2,12.6.2,16.8,0,3.7-.2,11.1-1.7,14.7-2.4,2-.4,5.9-2,7.3-3.6,1.3-1.4,4.4-7.3,4.4-7.3Z"/>
  <g>
    <circle cx="113" cy="52" r="4.5"/>
    <path class="st9" d="M113,48c2.2,0,4,1.8,4,4s-1.8,4-4,4-4-1.8-4-4,1.8-4,4-4M113,47c-2.8,0-5,2.2-5,5s2.2,5,5,5,5-2.2,5-5-2.2-5-5-5h0Z"/>
  </g>
  <path class="st4" d="M29.5,35.5"/>
</svg>